<svg width="18" height="18" viewBox="0 0 18 18" fill="none" xmlns="http://www.w3.org/2000/svg">
<path d="M15.6675 9.75V10.5H15.015C14.46 10.5 14.01 10.95 14.01 11.5125V11.7375C14.01 12.3 13.56 12.75 12.9975 12.75C12.4425 12.75 11.9925 12.3 11.9925 11.7375V11.5125C11.9925 10.95 11.535 10.5 10.98 10.5C10.425 10.5 9.97502 10.95 9.97502 11.5125V11.7375C9.97502 12.3 9.51752 12.75 8.96252 12.75C8.40752 12.75 7.95002 12.3 7.95002 11.7375V11.5125C7.95002 10.95 7.50002 10.5 6.94502 10.5C6.39002 10.5 5.93252 10.95 5.93252 11.5125V11.7375C5.93252 12.3 5.48252 12.75 4.92752 12.75C4.36502 12.75 3.91502 12.3 3.91502 11.7375V11.4975C3.91502 10.9425 3.47252 10.4925 2.92502 10.485H2.33252V9.75C2.33252 8.715 3.11252 7.8375 4.17002 7.5825C4.38002 7.53 4.59752 7.5 4.83002 7.5H13.17C13.4025 7.5 13.62 7.53 13.83 7.5825C14.8875 7.8375 15.6675 8.715 15.6675 9.75Z" fill="#2CBC67"/>
<path d="M13.83 5.3775V6.435C13.6125 6.39 13.395 6.375 13.17 6.375H4.83004C4.60504 6.375 4.38754 6.3975 4.17004 6.4425V5.3775C4.17004 4.4775 4.98004 3.75 5.98504 3.75H12.015C13.02 3.75 13.83 4.4775 13.83 5.3775Z" fill="#2CBC67"/>
<path d="M6.5625 2.6623V3.7573H5.985C5.79 3.7573 5.61 3.7798 5.4375 3.8248V2.6623C5.4375 2.3998 5.6925 2.1748 6 2.1748C6.3075 2.1748 6.5625 2.3998 6.5625 2.6623Z" fill="#2CBC67"/>
<path d="M12.5625 2.49756V3.82506C12.39 3.77256 12.21 3.75006 12.015 3.75006H11.4375V2.49756C11.4375 2.19006 11.6925 1.93506 12 1.93506C12.3075 1.93506 12.5625 2.19006 12.5625 2.49756Z" fill="#2CBC67"/>
<path d="M9.5625 2.115V3.75H8.4375V2.115C8.4375 1.7775 8.6925 1.5 9 1.5C9.3075 1.5 9.5625 1.7775 9.5625 2.115Z" fill="#2CBC67"/>
<path d="M16.5 15.9374C16.5 16.2449 16.245 16.4999 15.9375 16.4999H2.0625C1.755 16.4999 1.5 16.2449 1.5 15.9374C1.5 15.6299 1.755 15.3749 2.0625 15.3749H2.3325V11.6099H2.79V11.6624C2.79 12.6674 3.45 13.5974 4.4325 13.8149C5.1975 13.9949 5.925 13.7474 6.42 13.2599C6.705 12.9749 7.17 12.9674 7.455 13.2524C7.845 13.6349 8.3775 13.8749 8.9625 13.8749C9.5475 13.8749 10.08 13.6424 10.47 13.2524C10.755 12.9749 11.2125 12.9749 11.505 13.2599C11.9925 13.7474 12.72 13.9949 13.4925 13.8149C14.475 13.5974 15.135 12.6674 15.135 11.6624V11.6249H15.6675V15.3749H15.9375C16.245 15.3749 16.5 15.6299 16.5 15.9374Z" fill="#2CBC67"/>
</svg>
