<svg width="20" height="20" viewBox="0 0 20 20" fill="none" xmlns="http://www.w3.org/2000/svg">
<path d="M16 4C15.39 4 14.83 3.65 14.55 3.11L13.83 1.66C13.37 0.75 12.17 0 11.15 0H8.86005C7.83005 0 6.63005 0.75 6.17005 1.66L5.45005 3.11C5.17004 3.65 4.61005 4 4.00005 4C1.83005 4 0.110045 5.83 0.250045 7.99L0.770045 16.25C0.890045 18.31 2.00005 20 4.76005 20H15.24C18 20 19.1 18.31 19.23 16.25L19.75 7.99C19.89 5.83 18.17 4 16 4ZM8.50005 5.25H11.5C11.91 5.25 12.25 5.59 12.25 6C12.25 6.41 11.91 6.75 11.5 6.75H8.50005C8.09005 6.75 7.75005 6.41 7.75005 6C7.75005 5.59 8.09005 5.25 8.50005 5.25ZM10 16.12C8.14005 16.12 6.62005 14.61 6.62005 12.74C6.62005 10.87 8.13005 9.36 10 9.36C11.87 9.36 13.38 10.87 13.38 12.74C13.38 14.61 11.86 16.12 10 16.12Z" fill="#2CBC67"/>
</svg>
