<svg width="81" height="81" viewBox="0 0 81 81" fill="none" xmlns="http://www.w3.org/2000/svg">
<path d="M40.4999 0.0834961C18.2303 0.0834961 0.083252 18.2306 0.083252 40.5002C0.083252 62.7697 18.2303 80.9168 40.4999 80.9168C62.7695 80.9168 80.9166 62.7697 80.9166 40.5002C80.9166 18.2306 62.7695 0.0834961 40.4999 0.0834961ZM59.8191 31.2043L36.9028 54.1206C36.337 54.6864 35.5691 55.0097 34.7607 55.0097C33.9524 55.0097 33.1845 54.6864 32.6187 54.1206L21.1807 42.6827C20.0087 41.5106 20.0087 39.5706 21.1807 38.3985C22.3528 37.2264 24.2928 37.2264 25.4649 38.3985L34.7607 47.6943L55.5349 26.9202C56.707 25.7481 58.647 25.7481 59.8191 26.9202C60.9912 28.0922 60.9912 29.9918 59.8191 31.2043Z" fill="#2CBC67"/>
</svg>
