<svg width="14" height="16" viewBox="0 0 14 16" fill="none" xmlns="http://www.w3.org/2000/svg">
<path d="M13.465 5.3375C12.6775 1.8725 9.65495 0.3125 6.99995 0.3125C6.99995 0.3125 6.99995 0.3125 6.99245 0.3125C4.34495 0.3125 1.31495 1.865 0.527449 5.33C-0.350051 9.2 2.01995 12.4775 4.16495 14.54C4.95995 15.305 5.97995 15.6875 6.99995 15.6875C8.01995 15.6875 9.03995 15.305 9.82745 14.54C11.9724 12.4775 14.3425 9.2075 13.465 5.3375ZM6.99995 9.095C5.69495 9.095 4.63745 8.0375 4.63745 6.7325C4.63745 5.4275 5.69495 4.37 6.99995 4.37C8.30495 4.37 9.36245 5.4275 9.36245 6.7325C9.36245 8.0375 8.30495 9.095 6.99995 9.095Z" fill="#2CBC67"/>
</svg>
