<svg width="120" height="120" viewBox="0 0 120 120" fill="none" xmlns="http://www.w3.org/2000/svg">
<path d="M119.938 85.6047C119.559 88.3892 116.141 97.8816 116.141 97.8816C115.926 98.4006 115.546 98.236 115.42 98.1601C115.395 98.1474 115.369 98.1221 115.357 98.0968C113.8 95.8819 107.788 99.1473 107.788 99.1473C98.0424 104.843 91.5875 106.488 91.5875 106.488C76.0452 110.032 72.3368 100.805 72.109 100.198C72.0963 100.172 72.0963 100.147 72.0963 100.135L71.9824 94.2872C71.9824 94.0973 71.7293 94.0087 71.6154 94.1606L66.1477 101.172C61.5154 107.665 56.883 106.083 56.1236 105.779C56.0604 105.754 56.0097 105.691 55.9971 105.627L54.82 98.0588C54.7947 97.8943 54.5795 97.8184 54.4656 97.9449C48.7828 104.134 38.455 108.146 38.1766 108.26H38.1639C31.1774 110.5 25.7604 109.285 22.2292 107.665C20.9003 107.058 19.8371 106.4 19.0651 105.843C19.0524 105.83 19.0397 105.83 19.0397 105.817C17.5336 104.678 16.2933 103.172 17.3944 101.666C19.1537 102.185 20.3307 102.299 20.3307 102.299C39.6194 104.843 52.5039 91.4647 53.5544 90.3509C53.5923 90.3003 53.6176 90.237 53.605 90.1738C53.3392 88.579 49.8839 68.1512 48.3019 62.557C46.8717 57.507 44.315 39.446 43.6442 34.7124C43.4291 32.0545 43.3531 28.169 43.3531 28.169C43.3531 14.4745 46.2515 7.22225 48.555 3.56448C50.7952 0.0332839 50.2889 3.38729 50.213 3.8809C50.213 3.91887 50.1877 3.95684 50.1624 3.98215C47.0868 7.36147 47.1248 20.3851 47.302 26.2452C47.0362 27.726 48.15 33.8518 48.15 33.8518H48.1626C49.5042 42.5342 56.5033 81.2129 57.3513 85.8832C57.3893 86.0604 57.6045 86.111 57.7184 85.9718C61.3761 81.2002 68.9195 74.7453 72.5013 71.7963C76.1717 68.7588 76.0452 72.3026 76.0452 72.3026L75.6655 77.6184C75.5389 80.5294 74.7795 79.2637 74.7795 79.2637C73.5138 77.4918 71.1091 80.1497 68.0715 82.9342C65.1984 85.5667 58.9334 92.9456 58.2626 93.7429C58.2246 93.7935 58.212 93.8442 58.212 93.9075L58.8069 97.5652C58.8195 97.6665 58.9081 97.7424 59.0094 97.7424C61.971 97.6159 64.5276 94.4517 64.5276 94.4517C64.5276 94.4517 69.4637 88.8828 70.856 86.9843C71.9951 85.4275 74.0834 85.0605 74.7922 84.9845C74.9187 84.9719 75.0326 85.0731 75.02 85.1997C74.6909 90.6547 73.6278 92.376 73.2607 92.8063C73.1974 92.8823 73.1974 92.9962 73.2607 93.0721L75.1592 95.2111C81.8672 102.299 93.3847 97.2362 93.3847 97.2362C93.3847 97.2362 106.927 92.0469 109.585 90.1484C111.724 88.617 114.939 88.7309 116.103 88.8322C116.281 88.8448 116.394 88.655 116.293 88.5031C113.952 85.301 111.269 86.6426 105.409 87.9842C99.3334 89.3764 93.5113 92.9202 88.7018 94.3125C84.4618 95.5402 82.4747 94.2998 82.0697 93.9961C82.0191 93.9581 81.9938 93.8948 81.9938 93.8315V86.9843C81.9938 86.8957 82.0444 86.8198 82.1203 86.7944L82.8165 86.5286C82.9177 86.4907 82.9683 86.3894 82.943 86.2882C82.1836 82.7317 95.0681 66.6831 97.6753 64.4428C100.207 62.2659 101.599 61.4812 101.713 61.4052C101.713 61.4052 101.725 61.4052 101.725 61.3926C101.928 61.2407 106.003 58.4056 110.193 60.0004C114.344 61.5824 112.724 67.0501 112.61 67.4425C112.61 67.4551 112.597 67.4678 112.585 67.4804L108.889 73.7581C108.763 73.9733 108.446 73.8214 108.522 73.5936C108.661 73.1379 108.864 72.6823 108.914 72.5557C108.927 72.5304 108.927 72.5051 108.94 72.4925C109.18 69.7333 108.307 68.7334 108.307 68.7334C104.067 62.2532 95.1693 72.3406 94.8909 72.6443L94.8782 72.657C92.3849 74.9099 86.1452 84.9213 85.9047 85.301C85.9047 85.301 85.892 85.3136 85.892 85.3263C85.0187 87.2121 86.1451 86.8324 86.1451 86.8324C87.588 86.5919 89.1448 86.0097 89.2967 85.9464C89.3093 85.9464 89.3093 85.9464 89.322 85.9338C93.7138 83.5543 109.18 79.5802 109.56 79.4916H109.573C121.444 77.3779 119.938 85.6047 119.938 85.6047Z" fill="#2CBC67"/>
<path d="M88.322 8.74125C88.322 9.88034 87.9423 12.032 85.6641 13.4242C85.6641 13.4242 75.1591 22.6635 48.0739 31.9029C48.0739 31.9029 42.7581 33.8013 33.8985 34.3076V34.295C33.8605 34.3076 33.8225 34.3076 33.7846 34.3076H29.823C29.7977 34.3076 29.7597 34.3076 29.7344 34.3076C29.7091 34.3076 29.6711 34.3076 29.6458 34.3076C29.2535 34.3203 28.8991 34.4089 28.6206 34.5607C28.5194 34.6367 28.4181 34.7126 28.3169 34.7886H28.3042C28.2916 34.8012 28.2789 34.8139 28.2663 34.8265C27.6587 35.3455 27.3423 35.953 27.4309 36.5478C27.5448 37.2693 28.2283 37.8135 29.2282 38.1046C29.6458 38.2818 30.6077 38.421 31.7342 38.421C32.4683 38.421 33.1391 38.3704 33.6327 38.2818C33.6706 38.3324 33.658 38.421 33.582 38.4463C33.1011 38.6109 32.5948 38.7374 32.0506 38.826C31.9367 38.8387 31.8101 38.864 31.6962 38.8766C31.0128 38.9526 30.3546 38.9526 29.7471 38.8766C27.8866 38.6488 26.4817 37.7629 26.2918 36.5099C26.102 35.2822 27.1272 34.0418 28.7725 33.2571C28.9624 33.1685 29.1649 33.0799 29.38 33.004C29.5066 32.9534 29.6205 32.9154 29.7471 32.8774C29.9243 32.8141 30.1141 32.7635 30.304 32.7255L31.2785 32.5863L32.4683 32.4724L34.101 32.3079H34.1263C34.1389 32.3079 34.1642 32.3079 34.1896 32.3079L34.2655 32.2952C35.8096 32.118 44.4161 31.0169 53.1365 27.0047C53.1365 27.0047 69.9699 19.6639 74.2731 17.006C74.2731 17.006 85.5375 11.184 87.7524 8.4628C87.7524 8.42483 88.322 7.60215 88.322 8.74125Z" fill="#2CBC67"/>
<path d="M28.3296 34.7886C28.3043 34.8012 28.2917 34.8266 28.2664 34.8392C28.279 34.8266 28.2917 34.8139 28.3043 34.8012L28.3296 34.7886Z" fill="#2CBC67"/>
<path d="M58.4903 59.4561C59.8825 59.975 62.6164 61.0382 63.8694 61.7343C64.2491 61.9494 64.4389 62.3798 64.325 62.7974C63.996 64.1011 63.1859 67.1766 62.3506 69.3156C62.3506 69.3156 61.9962 70.5053 61.4773 69.3156C61.0976 68.4296 57.9334 67.6702 56.3007 67.3411C55.7691 67.2272 55.4401 66.7083 55.5666 66.1894C55.9337 64.658 56.6678 61.671 57.2626 60.0256C57.4398 59.5194 57.9967 59.2663 58.4903 59.4561Z" fill="#2CBC67"/>
<path d="M67.7422 53.8617C69.0205 54.4819 71.5139 55.7349 72.6403 56.5323C72.982 56.7728 73.1339 57.2537 73.0073 57.684C72.6276 59.0636 71.7164 62.2911 70.8177 64.5186C70.8177 64.5186 70.4254 65.7716 70.0077 64.4806C69.704 63.5187 66.793 62.5695 65.2868 62.1392C64.8059 62 64.5148 61.4304 64.6667 60.8735C65.0843 59.2535 65.9323 56.1146 66.5651 54.406C66.755 53.8744 67.2866 53.6339 67.7422 53.8617Z" fill="#2CBC67"/>
<path d="M49.9978 106.564C51.6938 107.311 55.0225 108.791 56.516 109.703C56.9716 109.981 57.1488 110.462 56.9716 110.892C56.4147 112.234 55.0478 115.373 53.7442 117.524C53.7442 117.524 53.162 118.74 52.643 117.411C52.2633 116.423 48.3651 115.196 46.3527 114.613C45.6945 114.424 45.3402 113.829 45.5553 113.285C46.1881 111.702 47.4538 108.652 48.3778 106.994C48.6689 106.501 49.3903 106.298 49.9978 106.564Z" fill="#2CBC67"/>
<path d="M31.9113 55.697C31.9113 55.697 33.8098 60.8483 33.9997 61.5317C34.1895 62.2152 34.6072 66.4046 33.9364 68.7334C33.2656 71.0622 32.6834 74.4795 29.7091 76.5045V73.796C29.7091 73.796 32.0759 70.7331 30.0508 68.0246C28.0258 65.3161 26.0007 64.9617 26.0007 64.9617V67.2779C26.0007 67.2779 24.6591 70.1636 22.2543 67.1513C21.6848 66.4678 22.2164 63.0126 22.2164 63.0126C22.2164 63.0126 23.6339 58.4435 28.165 61.6836C32.6834 64.9111 31.6076 71.5052 31.6076 71.5052C31.6076 71.5052 34.1136 66.9868 33.1137 63.1012C32.1265 59.2282 29.7724 58.0132 30.4685 53.7986C30.4685 53.7986 31.0127 49.8117 32.5568 49.432C32.5568 49.432 33.6706 48.7232 34.3921 49.4067C35.1008 50.0902 34.873 50.9128 34.7085 51.8874C34.5566 52.862 33.8478 54.3048 33.8478 54.3048C33.8478 54.3048 33.4175 52.6848 32.1898 53.1024C30.9621 53.4948 31.9113 55.697 31.9113 55.697Z" fill="#2CBC67"/>
<path d="M60.3256 35.8771C60.3256 35.8771 59.6422 36.9529 60.5788 36.3707L61.2496 35.6113C61.2496 35.6113 61.7052 35.0671 61.8318 35.9783C61.9583 36.877 63.0215 42.5091 64.5403 42.1674C66.0718 41.8257 66.3882 39.9525 66.3882 39.9525C66.3882 39.9525 68.2234 42.1548 69.084 39.8259C69.9447 37.4971 68.2614 31.6118 67.2995 30.903C66.3249 30.1943 66.2996 31.3587 66.4641 31.8143C66.6286 32.2699 67.3627 33.0926 67.4766 33.7887C67.5779 34.4849 68.3373 36.877 68.2867 38.4211C68.2867 38.4211 68.2487 39.2691 68.1095 39.5222C67.9703 39.7753 67.6032 39.8386 67.1729 39.1678C66.7426 38.497 66.1224 37.0921 65.768 34.9658C65.768 34.9658 65.3503 33.3837 65.0466 32.9661C64.7301 32.5484 64.034 32.5104 64.11 33.5736C64.1859 34.6367 65.3756 37.6363 65.3756 37.6363C65.3756 37.6363 65.8186 39.5475 65.2617 40.3449C64.7175 41.1296 64.3758 40.9397 64.0467 40.4967C63.7176 40.0538 62.6291 35.6366 62.6291 35.6366C62.6291 35.6366 62.1482 32.4092 61.2749 34.1052C60.4016 35.7885 60.3256 35.8771 60.3256 35.8771Z" fill="#2CBC67"/>
<path d="M93.4986 49.7357C93.4986 49.7357 90.2838 51.014 90.5623 48.9637C90.5623 48.9637 90.6129 47.7866 91.9798 46.5842C93.3467 45.3818 92.9291 45.0654 92.9291 45.0654C92.9291 45.0654 89.9421 46.407 89.3599 49.6598C88.7777 52.9125 91.1698 52.8113 91.1698 52.8113C91.1698 52.8113 93.0936 52.6974 94.0302 51.1912C94.3719 50.6343 94.3086 49.6724 94.3086 49.6724C94.3086 49.6724 94.3466 49.2927 94.2327 49.2548C94.1188 49.2168 93.6505 49.7231 93.4986 49.7357Z" fill="#2CBC67"/>
<path d="M106.699 40.9776L106.067 40.4207C106.953 36.9528 106.484 36.1048 106.079 35.3327C105.674 34.5607 105.029 34.0924 104.56 34.3329C104.092 34.5733 103.345 34.6999 102.523 37.2312C101.7 39.7626 103.371 41.5978 103.649 41.8256C103.7 41.8636 103.852 41.9775 104.067 42.1167L99.3965 48.5969C99.3965 48.5969 98.1435 50.4954 99.7636 48.9766C101.244 47.5844 104.485 43.433 105.029 42.7369C105.991 43.357 107.104 44.0658 107.104 44.0658C107.104 44.0658 107.155 43.1672 107.168 42.2179C107.206 41.2814 106.699 40.9776 106.699 40.9776ZM105.13 39.6613L104.067 38.7247C104.067 38.7247 103.13 37.7755 103.497 37.0034C103.864 36.2314 104.611 37.2059 104.611 37.2059C104.611 37.2059 105.548 38.2564 105.13 39.6613Z" fill="#2CBC67"/>
<path d="M28.3296 34.7886C28.3043 34.8012 28.2917 34.8266 28.2664 34.8392C28.279 34.8266 28.2917 34.8139 28.3043 34.8012L28.3296 34.7886Z" fill="#2CBC67"/>
<path d="M22.2291 107.665C22.2291 107.665 20.5204 106.931 19.0522 105.83C19.837 106.4 20.9001 107.058 22.2291 107.665Z" fill="#2CBC67"/>
<path d="M19.2422 104.678L19.0903 104.64L18.9637 104.602L18.7106 104.526C18.5461 104.476 18.3815 104.425 18.217 104.362C17.8879 104.248 17.5715 104.134 17.2551 104.007C16.6223 103.754 15.9894 103.489 15.3819 103.185C14.1542 102.59 12.9771 101.919 11.8381 101.172C9.57252 99.6662 7.5348 97.8184 5.82615 95.7047C4.9655 94.6415 4.2061 93.5151 3.5353 92.338L3.04169 91.4394C2.9531 91.2876 2.88981 91.1357 2.81387 90.9838L2.59871 90.5282L2.38355 90.0725C2.30761 89.9206 2.25698 89.7561 2.18104 89.6042L1.80134 88.6676C0.864754 86.1236 0.307863 83.4531 0.0800442 80.7826C-0.0465221 79.4283 -0.0212088 78.0487 0.143327 76.6945C0.307863 75.3402 0.611622 74.0113 1.01663 72.7203C1.4343 71.4293 1.96588 70.189 2.58606 68.9866C3.20623 67.7969 3.92766 66.6578 4.69971 65.5693C6.25648 63.3924 8.09169 61.4306 10.0661 59.6587C12.0406 57.8867 14.1795 56.3047 16.4071 54.8871C20.8749 52.052 25.7097 49.8498 30.747 48.3057C33.2657 47.5336 35.835 46.9135 38.4296 46.5084C41.0242 46.0908 43.6568 45.8756 46.302 45.9009H46.7957L47.2893 45.9136L47.7829 45.9262L48.2765 45.9516C48.9346 45.9895 49.5928 46.0148 50.2383 46.0908C50.8964 46.1541 51.5419 46.2047 52.2 46.2933L53.1746 46.4199L54.1492 46.5717C55.4528 46.7616 56.7311 47.04 58.0094 47.3311L58.9587 47.5843L59.4396 47.7108L59.9079 47.85C60.2243 47.9386 60.5407 48.0272 60.8572 48.1285L61.7938 48.4449C63.0341 48.8752 64.2491 49.3688 65.4389 49.9257C66.6286 50.4953 67.7803 51.1281 68.8815 51.8369C69.9826 52.5457 71.0331 53.343 72.0076 54.2163C72.4886 54.6593 72.9569 55.1149 73.3999 55.6086C73.8302 56.1022 74.2479 56.6084 74.6022 57.1653C74.2479 56.6211 73.8176 56.1148 73.3746 55.6339C72.9316 55.1529 72.4506 54.7099 71.9697 54.267C70.9825 53.4063 69.932 52.6342 68.8182 51.9508C67.7044 51.2673 66.5526 50.6472 65.3629 50.1156C64.1732 49.584 62.9582 49.1157 61.7178 48.7107L60.7812 48.4196C60.4648 48.331 60.1484 48.2424 59.8446 48.1538L59.3763 48.0272L58.8954 47.9133L57.9461 47.6855C56.6678 47.4197 55.3895 47.1666 54.0985 47.0021L53.1366 46.8755L52.1621 46.7742C51.5166 46.6983 50.8711 46.6603 50.2129 46.6097C49.5675 46.5464 48.9093 46.5338 48.2638 46.5084L47.7702 46.4831L47.2893 46.4705L46.8083 46.4578H46.3274C43.7327 46.4831 41.1381 46.7489 38.5815 47.2046C36.0249 47.6602 33.5062 48.3183 31.0382 49.1157C26.1021 50.7358 21.3811 52.9886 17.0526 55.8364C14.901 57.2666 12.8506 58.8486 10.9521 60.6079C9.06625 62.3672 7.34495 64.291 5.88943 66.392C5.16801 67.4425 4.50986 68.5436 3.94032 69.6701C3.37077 70.8091 2.90247 71.9862 2.53543 73.1886C2.16839 74.391 1.91525 75.6313 1.78869 76.8717C1.76338 77.1881 1.73806 77.4918 1.71275 77.8083C1.71275 78.1247 1.68744 78.4284 1.68744 78.7448C1.70009 79.3777 1.72541 79.9852 1.78869 80.618C2.04182 83.1493 2.61137 85.6427 3.5353 87.9842L3.90234 88.8575C3.96563 88.9967 4.01625 89.1486 4.09219 89.2878L4.30736 89.7055L4.52252 90.1231C4.59846 90.2624 4.66174 90.4016 4.73768 90.5408L5.20598 91.3635C5.85147 92.4393 6.57289 93.4771 7.38292 94.4264C9.00296 96.3375 10.9141 98.0209 13.0278 99.3751C14.0909 100.059 15.1921 100.653 16.3312 101.185C16.9007 101.451 17.4829 101.691 18.0651 101.906C18.3562 102.02 18.6473 102.122 18.9384 102.21C19.0903 102.261 19.2295 102.299 19.3814 102.349L19.5966 102.413L19.6978 102.438L19.7864 102.463L19.2422 104.678Z" fill="#2CBC67"/>
<path d="M103.814 61.6455C106.244 61.038 113.218 59.8736 110.889 67.2903C110.851 67.4169 110.674 67.3789 110.674 67.2524C110.699 65.5184 110.003 61.9619 103.852 61.8607C103.713 61.8607 103.687 61.6835 103.814 61.6455Z" fill="white"/>
<path d="M103.814 61.6455C106.244 61.038 113.218 59.8736 110.889 67.2903C110.851 67.4169 110.674 67.3789 110.674 67.2524C110.699 65.5184 110.003 61.9619 103.852 61.8607C103.713 61.8607 103.687 61.6835 103.814 61.6455Z" fill="#2CBC67" fill-opacity="0.7"/>
<path d="M106.877 81.7442C109.889 80.8836 119.369 78.7826 117.951 86.5917C117.926 86.7056 117.761 86.7056 117.749 86.5917C117.508 84.9463 115.951 81.3266 106.915 81.9467C106.788 81.9467 106.75 81.7822 106.877 81.7442Z" fill="white"/>
<path d="M106.877 81.7442C109.889 80.8836 119.369 78.7826 117.951 86.5917C117.926 86.7056 117.761 86.7056 117.749 86.5917C117.508 84.9463 115.951 81.3266 106.915 81.9467C106.788 81.9467 106.75 81.7822 106.877 81.7442Z" fill="#2CBC67" fill-opacity="0.7"/>
</svg>
