<svg width="16" height="14" viewBox="0 0 16 14" fill="none" xmlns="http://www.w3.org/2000/svg">
<path d="M12.5 0.25H3.5C1.8425 0.25 0.5 1.585 0.5 3.2275V10.7725C0.5 12.415 1.8425 13.75 3.5 13.75H12.5C14.1575 13.75 15.5 12.415 15.5 10.7725V3.2275C15.5 1.585 14.1575 0.25 12.5 0.25ZM5.375 3.3775C6.3275 3.3775 7.1075 4.1575 7.1075 5.11C7.1075 6.0625 6.3275 6.8425 5.375 6.8425C4.4225 6.8425 3.6425 6.0625 3.6425 5.11C3.6425 4.1575 4.4225 3.3775 5.375 3.3775ZM8.2775 10.495C8.21 10.57 8.105 10.615 8 10.615H2.75C2.645 10.615 2.54 10.57 2.4725 10.495C2.405 10.42 2.3675 10.315 2.375 10.21C2.5025 8.95 3.5075 7.9525 4.7675 7.8325C5.165 7.795 5.5775 7.795 5.975 7.8325C7.235 7.9525 8.2475 8.95 8.3675 10.21C8.3825 10.315 8.345 10.42 8.2775 10.495ZM13.25 10.5625H11.75C11.4425 10.5625 11.1875 10.3075 11.1875 10C11.1875 9.6925 11.4425 9.4375 11.75 9.4375H13.25C13.5575 9.4375 13.8125 9.6925 13.8125 10C13.8125 10.3075 13.5575 10.5625 13.25 10.5625ZM13.25 7.5625H10.25C9.9425 7.5625 9.6875 7.3075 9.6875 7C9.6875 6.6925 9.9425 6.4375 10.25 6.4375H13.25C13.5575 6.4375 13.8125 6.6925 13.8125 7C13.8125 7.3075 13.5575 7.5625 13.25 7.5625ZM13.25 4.5625H9.5C9.1925 4.5625 8.9375 4.3075 8.9375 4C8.9375 3.6925 9.1925 3.4375 9.5 3.4375H13.25C13.5575 3.4375 13.8125 3.6925 13.8125 4C13.8125 4.3075 13.5575 4.5625 13.25 4.5625Z" fill="#2CBC67"/>
</svg>
