<svg width="18" height="18" viewBox="0 0 18 18" fill="none" xmlns="http://www.w3.org/2000/svg">
<path d="M9.375 16.3125C13.6125 16.3125 17.0625 12.8625 17.0625 8.625C17.0625 4.3875 13.6125 0.9375 9.375 0.9375C5.1375 0.9375 1.6875 4.3875 1.6875 8.625C1.6875 12.8625 5.1375 16.3125 9.375 16.3125ZM9.375 2.0625C12.9975 2.0625 15.9375 5.01 15.9375 8.625C15.9375 12.24 12.9975 15.1875 9.375 15.1875C5.7525 15.1875 2.8125 12.24 2.8125 8.625C2.8125 5.01 5.7525 2.0625 9.375 2.0625Z" fill="#2CBC67"/>
<path d="M1.49992 17.0626C1.64242 17.0626 1.78492 17.0101 1.89742 16.8976L3.39742 15.3976C3.61492 15.1801 3.61492 14.8201 3.39742 14.6026C3.17992 14.3851 2.81992 14.3851 2.60242 14.6026L1.10242 16.1026C0.884921 16.3201 0.884921 16.6801 1.10242 16.8976C1.21492 17.0101 1.35742 17.0626 1.49992 17.0626Z" fill="#2CBC67"/>
</svg>
