<svg width="16" height="16" viewBox="0 0 16 16" fill="none" xmlns="http://www.w3.org/2000/svg">
<path d="M14.075 5.91507C12.7175 5.91507 12.1625 4.95507 12.8375 3.77757C13.2275 3.09507 12.995 2.22507 12.3125 1.83507L11.015 1.09257C10.4225 0.740074 9.6575 0.950074 9.305 1.54257L9.2225 1.68507C8.5475 2.86257 7.4375 2.86257 6.755 1.68507L6.6725 1.54257C6.335 0.950074 5.57 0.740074 4.9775 1.09257L3.68 1.83507C2.9975 2.22507 2.765 3.10257 3.155 3.78507C3.8375 4.95507 3.2825 5.91507 1.925 5.91507C1.145 5.91507 0.5 6.55257 0.5 7.34007V8.66007C0.5 9.44007 1.1375 10.0851 1.925 10.0851C3.2825 10.0851 3.8375 11.0451 3.155 12.2226C2.765 12.9051 2.9975 13.7751 3.68 14.1651L4.9775 14.9076C5.57 15.2601 6.335 15.0501 6.6875 14.4576L6.77 14.3151C7.445 13.1376 8.555 13.1376 9.2375 14.3151L9.32 14.4576C9.6725 15.0501 10.4375 15.2601 11.03 14.9076L12.3275 14.1651C13.01 13.7751 13.2425 12.8976 12.8525 12.2226C12.17 11.0451 12.725 10.0851 14.0825 10.0851C14.8625 10.0851 15.5075 9.44757 15.5075 8.66007V7.34007C15.5 6.56007 14.8625 5.91507 14.075 5.91507ZM8 10.4376C6.6575 10.4376 5.5625 9.34257 5.5625 8.00007C5.5625 6.65757 6.6575 5.56257 8 5.56257C9.3425 5.56257 10.4375 6.65757 10.4375 8.00007C10.4375 9.34257 9.3425 10.4376 8 10.4376Z" fill="#2CBC67"/>
</svg>
