<svg width="10" height="10" viewBox="0 0 10 10" fill="none" xmlns="http://www.w3.org/2000/svg">
<path d="M5.81056 1.0036L6.63306 2.6486C6.74389 2.8761 7.04139 3.09193 7.29222 3.1386L8.77972 3.3836C9.73056 3.5411 9.95222 4.22943 9.26972 4.91777L8.10889 6.0786C7.91639 6.2711 7.80556 6.65027 7.86972 6.92443L8.20222 8.35943C8.46472 9.4911 7.85806 9.93443 6.86056 9.33943L5.46639 8.5111C5.21556 8.35943 4.79556 8.35943 4.54472 8.5111L3.15056 9.33943C2.15306 9.9286 1.54639 9.4911 1.80889 8.35943L2.14139 6.92443C2.19389 6.64443 2.08306 6.26527 1.89056 6.07277L0.729722 4.91193C0.047222 4.22943 0.268889 3.5411 1.21972 3.37777L2.70722 3.13277C2.95806 3.09193 3.25556 2.87027 3.36639 2.64277L4.18889 0.997769C4.63806 0.111102 5.36139 0.111102 5.81056 1.0036Z" fill="#F39C12"/>
</svg>
