<svg width="16" height="16" viewBox="0 0 16 16" fill="none" xmlns="http://www.w3.org/2000/svg">
<path d="M11.9675 2.10503L11.915 4.94753C11.9075 5.33753 12.155 5.85503 12.47 6.08753L14.33 7.49753C15.5225 8.39753 15.3275 9.50003 13.9025 9.95003L11.48 10.7075C11.075 10.835 10.6475 11.2775 10.5425 11.69L9.96502 13.895C9.50752 15.635 8.36752 15.8075 7.42252 14.2775L6.10252 12.14C5.86252 11.75 5.29252 11.4575 4.84252 11.48L2.33752 11.6075C0.54502 11.6975 0.0350199 10.6625 1.20502 9.29753L2.69002 7.57253C2.96752 7.25003 3.09502 6.65003 2.96752 6.24503L2.20252 3.81503C1.76002 2.39003 2.55502 1.60253 3.97252 2.06753L6.18502 2.79503C6.56002 2.91503 7.12252 2.83253 7.43752 2.60003L9.74752 0.935033C11 0.0425329 11.9975 0.567533 11.9675 2.10503Z" fill="#2CBC67"/>
</svg>
