<svg width="14" height="16" viewBox="0 0 14 16" fill="none" xmlns="http://www.w3.org/2000/svg">
<path d="M12.6324 3.3875L8.17744 0.815C7.44994 0.395 6.54994 0.395 5.81494 0.815L1.36744 3.3875C0.639941 3.8075 0.189941 4.5875 0.189941 5.435V10.565C0.189941 11.405 0.639941 12.185 1.36744 12.6125L5.82244 15.185C6.54994 15.605 7.44994 15.605 8.18494 15.185L12.6399 12.6125C13.3674 12.1925 13.8174 11.4125 13.8174 10.565V5.435C13.8099 4.5875 13.3599 3.815 12.6324 3.3875ZM6.99994 4.505C7.96744 4.505 8.74744 5.285 8.74744 6.2525C8.74744 7.22 7.96744 8 6.99994 8C6.03244 8 5.25244 7.22 5.25244 6.2525C5.25244 5.2925 6.03244 4.505 6.99994 4.505ZM9.00994 11.495H4.98994C4.38244 11.495 4.02994 10.82 4.36744 10.3175C4.87744 9.56 5.86744 9.05 6.99994 9.05C8.13244 9.05 9.12244 9.56 9.63244 10.3175C9.96994 10.8125 9.60994 11.495 9.00994 11.495Z" fill="#2CBC67"/>
</svg>
